<?xml version="1.0" encoding="UTF-8"?>
<!DOCTYPE svg PUBLIC "-//W3C//DTD SVG 1.1//EN" "http://www.w3.org/Graphics/SVG/1.1/DTD/svg11.dtd">
<svg width="299mm" height="168mm" viewBox="0 0 29900 16800" version="1.1" xmlns="http://www.w3.org/2000/svg" stroke-width="28.222" stroke-linejoin="round" xml:space="preserve">
 <path fill="rgb(255,255,255)" stroke="none" d="M 14960,16829 L 0,16829 0,0 29920,0 29920,16829 14960,16829 Z"/>
 <path fill="none" stroke="rgb(179,179,179)" stroke-linejoin="round" d="M 13938,15089 L 1405,15089 1405,336 26470,336 26470,15089 13938,15089 Z"/>
 <path fill="none" stroke="rgb(179,179,179)" stroke-linejoin="round" d="M 26470,15088 L 1405,15088"/>
 <path fill="none" stroke="rgb(179,179,179)" stroke-linejoin="round" d="M 26470,13612 L 1405,13612"/>
 <path fill="none" stroke="rgb(179,179,179)" stroke-linejoin="round" d="M 26470,12137 L 1405,12137"/>
 <path fill="none" stroke="rgb(179,179,179)" stroke-linejoin="round" d="M 26470,10661 L 1405,10661"/>
 <path fill="none" stroke="rgb(179,179,179)" stroke-linejoin="round" d="M 26470,9186 L 1405,9186"/>
 <path fill="none" stroke="rgb(179,179,179)" stroke-linejoin="round" d="M 26470,7711 L 1405,7711"/>
 <path fill="none" stroke="rgb(179,179,179)" stroke-linejoin="round" d="M 26470,6236 L 1405,6236"/>
 <path fill="none" stroke="rgb(179,179,179)" stroke-linejoin="round" d="M 26470,4761 L 1405,4761"/>
 <path fill="none" stroke="rgb(179,179,179)" stroke-linejoin="round" d="M 26470,3285 L 1405,3285"/>
 <path fill="none" stroke="rgb(179,179,179)" stroke-linejoin="round" d="M 26470,1810 L 1405,1810"/>
 <path fill="none" stroke="rgb(179,179,179)" stroke-linejoin="round" d="M 26470,334 L 1405,334"/>
 <path fill="none" stroke="rgb(179,179,179)" stroke-linejoin="round" d="M 1405,15238 L 1405,15088"/>
 <path fill="none" stroke="rgb(179,179,179)" stroke-linejoin="round" d="M 1405,15238 L 1405,15088"/>
 <path fill="none" stroke="rgb(179,179,179)" stroke-linejoin="round" d="M 2064,15238 L 2064,15088"/>
 <path fill="none" stroke="rgb(179,179,179)" stroke-linejoin="round" d="M 2064,15238 L 2064,15088"/>
 <path fill="none" stroke="rgb(179,179,179)" stroke-linejoin="round" d="M 2724,15238 L 2724,15088"/>
 <path fill="none" stroke="rgb(179,179,179)" stroke-linejoin="round" d="M 2724,15238 L 2724,15088"/>
 <path fill="none" stroke="rgb(179,179,179)" stroke-linejoin="round" d="M 3383,15238 L 3383,15088"/>
 <path fill="none" stroke="rgb(179,179,179)" stroke-linejoin="round" d="M 3383,15238 L 3383,15088"/>
 <path fill="none" stroke="rgb(179,179,179)" stroke-linejoin="round" d="M 4043,15238 L 4043,15088"/>
 <path fill="none" stroke="rgb(179,179,179)" stroke-linejoin="round" d="M 4043,15238 L 4043,15088"/>
 <path fill="none" stroke="rgb(179,179,179)" stroke-linejoin="round" d="M 4703,15238 L 4703,15088"/>
 <path fill="none" stroke="rgb(179,179,179)" stroke-linejoin="round" d="M 4703,15238 L 4703,15088"/>
 <path fill="none" stroke="rgb(179,179,179)" stroke-linejoin="round" d="M 5362,15238 L 5362,15088"/>
 <path fill="none" stroke="rgb(179,179,179)" stroke-linejoin="round" d="M 5362,15238 L 5362,15088"/>
 <path fill="none" stroke="rgb(179,179,179)" stroke-linejoin="round" d="M 6022,15238 L 6022,15088"/>
 <path fill="none" stroke="rgb(179,179,179)" stroke-linejoin="round" d="M 6022,15238 L 6022,15088"/>
 <path fill="none" stroke="rgb(179,179,179)" stroke-linejoin="round" d="M 6682,15238 L 6682,15088"/>
 <path fill="none" stroke="rgb(179,179,179)" stroke-linejoin="round" d="M 6682,15238 L 6682,15088"/>
 <path fill="none" stroke="rgb(179,179,179)" stroke-linejoin="round" d="M 7341,15238 L 7341,15088"/>
 <path fill="none" stroke="rgb(179,179,179)" stroke-linejoin="round" d="M 7341,15238 L 7341,15088"/>
 <path fill="none" stroke="rgb(179,179,179)" stroke-linejoin="round" d="M 8001,15238 L 8001,15088"/>
 <path fill="none" stroke="rgb(179,179,179)" stroke-linejoin="round" d="M 8001,15238 L 8001,15088"/>
 <path fill="none" stroke="rgb(179,179,179)" stroke-linejoin="round" d="M 8660,15238 L 8660,15088"/>
 <path fill="none" stroke="rgb(179,179,179)" stroke-linejoin="round" d="M 8660,15238 L 8660,15088"/>
 <path fill="none" stroke="rgb(179,179,179)" stroke-linejoin="round" d="M 9320,15238 L 9320,15088"/>
 <path fill="none" stroke="rgb(179,179,179)" stroke-linejoin="round" d="M 9320,15238 L 9320,15088"/>
 <path fill="none" stroke="rgb(179,179,179)" stroke-linejoin="round" d="M 9980,15238 L 9980,15088"/>
 <path fill="none" stroke="rgb(179,179,179)" stroke-linejoin="round" d="M 9980,15238 L 9980,15088"/>
 <path fill="none" stroke="rgb(179,179,179)" stroke-linejoin="round" d="M 10639,15238 L 10639,15088"/>
 <path fill="none" stroke="rgb(179,179,179)" stroke-linejoin="round" d="M 10639,15238 L 10639,15088"/>
 <path fill="none" stroke="rgb(179,179,179)" stroke-linejoin="round" d="M 11299,15238 L 11299,15088"/>
 <path fill="none" stroke="rgb(179,179,179)" stroke-linejoin="round" d="M 11299,15238 L 11299,15088"/>
 <path fill="none" stroke="rgb(179,179,179)" stroke-linejoin="round" d="M 11959,15238 L 11959,15088"/>
 <path fill="none" stroke="rgb(179,179,179)" stroke-linejoin="round" d="M 11959,15238 L 11959,15088"/>
 <path fill="none" stroke="rgb(179,179,179)" stroke-linejoin="round" d="M 12618,15238 L 12618,15088"/>
 <path fill="none" stroke="rgb(179,179,179)" stroke-linejoin="round" d="M 12618,15238 L 12618,15088"/>
 <path fill="none" stroke="rgb(179,179,179)" stroke-linejoin="round" d="M 13278,15238 L 13278,15088"/>
 <path fill="none" stroke="rgb(179,179,179)" stroke-linejoin="round" d="M 13278,15238 L 13278,15088"/>
 <path fill="none" stroke="rgb(179,179,179)" stroke-linejoin="round" d="M 13938,15238 L 13938,15088"/>
 <path fill="none" stroke="rgb(179,179,179)" stroke-linejoin="round" d="M 13938,15238 L 13938,15088"/>
 <path fill="none" stroke="rgb(179,179,179)" stroke-linejoin="round" d="M 14597,15238 L 14597,15088"/>
 <path fill="none" stroke="rgb(179,179,179)" stroke-linejoin="round" d="M 14597,15238 L 14597,15088"/>
 <path fill="none" stroke="rgb(179,179,179)" stroke-linejoin="round" d="M 15256,15238 L 15256,15088"/>
 <path fill="none" stroke="rgb(179,179,179)" stroke-linejoin="round" d="M 15256,15238 L 15256,15088"/>
 <path fill="none" stroke="rgb(179,179,179)" stroke-linejoin="round" d="M 15915,15238 L 15915,15088"/>
 <path fill="none" stroke="rgb(179,179,179)" stroke-linejoin="round" d="M 15915,15238 L 15915,15088"/>
 <path fill="none" stroke="rgb(179,179,179)" stroke-linejoin="round" d="M 16575,15238 L 16575,15088"/>
 <path fill="none" stroke="rgb(179,179,179)" stroke-linejoin="round" d="M 16575,15238 L 16575,15088"/>
 <path fill="none" stroke="rgb(179,179,179)" stroke-linejoin="round" d="M 17235,15238 L 17235,15088"/>
 <path fill="none" stroke="rgb(179,179,179)" stroke-linejoin="round" d="M 17235,15238 L 17235,15088"/>
 <path fill="none" stroke="rgb(179,179,179)" stroke-linejoin="round" d="M 17894,15238 L 17894,15088"/>
 <path fill="none" stroke="rgb(179,179,179)" stroke-linejoin="round" d="M 17894,15238 L 17894,15088"/>
 <path fill="none" stroke="rgb(179,179,179)" stroke-linejoin="round" d="M 18554,15238 L 18554,15088"/>
 <path fill="none" stroke="rgb(179,179,179)" stroke-linejoin="round" d="M 18554,15238 L 18554,15088"/>
 <path fill="none" stroke="rgb(179,179,179)" stroke-linejoin="round" d="M 19214,15238 L 19214,15088"/>
 <path fill="none" stroke="rgb(179,179,179)" stroke-linejoin="round" d="M 19214,15238 L 19214,15088"/>
 <path fill="none" stroke="rgb(179,179,179)" stroke-linejoin="round" d="M 19873,15238 L 19873,15088"/>
 <path fill="none" stroke="rgb(179,179,179)" stroke-linejoin="round" d="M 19873,15238 L 19873,15088"/>
 <path fill="none" stroke="rgb(179,179,179)" stroke-linejoin="round" d="M 20533,15238 L 20533,15088"/>
 <path fill="none" stroke="rgb(179,179,179)" stroke-linejoin="round" d="M 20533,15238 L 20533,15088"/>
 <path fill="none" stroke="rgb(179,179,179)" stroke-linejoin="round" d="M 21192,15238 L 21192,15088"/>
 <path fill="none" stroke="rgb(179,179,179)" stroke-linejoin="round" d="M 21192,15238 L 21192,15088"/>
 <path fill="none" stroke="rgb(179,179,179)" stroke-linejoin="round" d="M 21852,15238 L 21852,15088"/>
 <path fill="none" stroke="rgb(179,179,179)" stroke-linejoin="round" d="M 21852,15238 L 21852,15088"/>
 <path fill="none" stroke="rgb(179,179,179)" stroke-linejoin="round" d="M 22512,15238 L 22512,15088"/>
 <path fill="none" stroke="rgb(179,179,179)" stroke-linejoin="round" d="M 22512,15238 L 22512,15088"/>
 <path fill="none" stroke="rgb(179,179,179)" stroke-linejoin="round" d="M 23171,15238 L 23171,15088"/>
 <path fill="none" stroke="rgb(179,179,179)" stroke-linejoin="round" d="M 23171,15238 L 23171,15088"/>
 <path fill="none" stroke="rgb(179,179,179)" stroke-linejoin="round" d="M 23831,15238 L 23831,15088"/>
 <path fill="none" stroke="rgb(179,179,179)" stroke-linejoin="round" d="M 23831,15238 L 23831,15088"/>
 <path fill="none" stroke="rgb(179,179,179)" stroke-linejoin="round" d="M 24491,15238 L 24491,15088"/>
 <path fill="none" stroke="rgb(179,179,179)" stroke-linejoin="round" d="M 24491,15238 L 24491,15088"/>
 <path fill="none" stroke="rgb(179,179,179)" stroke-linejoin="round" d="M 25150,15238 L 25150,15088"/>
 <path fill="none" stroke="rgb(179,179,179)" stroke-linejoin="round" d="M 25150,15238 L 25150,15088"/>
 <path fill="none" stroke="rgb(179,179,179)" stroke-linejoin="round" d="M 25810,15238 L 25810,15088"/>
 <path fill="none" stroke="rgb(179,179,179)" stroke-linejoin="round" d="M 25810,15238 L 25810,15088"/>
 <path fill="none" stroke="rgb(179,179,179)" stroke-linejoin="round" d="M 26470,15238 L 26470,15088"/>
 <path fill="none" stroke="rgb(179,179,179)" stroke-linejoin="round" d="M 26470,15238 L 26470,15088"/>
 <path fill="none" stroke="rgb(179,179,179)" stroke-linejoin="round" d="M 1405,15088 L 26470,15088"/>
 <path fill="none" stroke="rgb(179,179,179)" stroke-linejoin="round" d="M 1255,15088 L 1405,15088"/>
 <path fill="none" stroke="rgb(179,179,179)" stroke-linejoin="round" d="M 1255,15088 L 1405,15088"/>
 <path fill="none" stroke="rgb(179,179,179)" stroke-linejoin="round" d="M 1255,13612 L 1405,13612"/>
 <path fill="none" stroke="rgb(179,179,179)" stroke-linejoin="round" d="M 1255,13612 L 1405,13612"/>
 <path fill="none" stroke="rgb(179,179,179)" stroke-linejoin="round" d="M 1255,12137 L 1405,12137"/>
 <path fill="none" stroke="rgb(179,179,179)" stroke-linejoin="round" d="M 1255,12137 L 1405,12137"/>
 <path fill="none" stroke="rgb(179,179,179)" stroke-linejoin="round" d="M 1255,10661 L 1405,10661"/>
 <path fill="none" stroke="rgb(179,179,179)" stroke-linejoin="round" d="M 1255,10661 L 1405,10661"/>
 <path fill="none" stroke="rgb(179,179,179)" stroke-linejoin="round" d="M 1255,9186 L 1405,9186"/>
 <path fill="none" stroke="rgb(179,179,179)" stroke-linejoin="round" d="M 1255,9186 L 1405,9186"/>
 <path fill="none" stroke="rgb(179,179,179)" stroke-linejoin="round" d="M 1255,7711 L 1405,7711"/>
 <path fill="none" stroke="rgb(179,179,179)" stroke-linejoin="round" d="M 1255,7711 L 1405,7711"/>
 <path fill="none" stroke="rgb(179,179,179)" stroke-linejoin="round" d="M 1255,6236 L 1405,6236"/>
 <path fill="none" stroke="rgb(179,179,179)" stroke-linejoin="round" d="M 1255,6236 L 1405,6236"/>
 <path fill="none" stroke="rgb(179,179,179)" stroke-linejoin="round" d="M 1255,4761 L 1405,4761"/>
 <path fill="none" stroke="rgb(179,179,179)" stroke-linejoin="round" d="M 1255,4761 L 1405,4761"/>
 <path fill="none" stroke="rgb(179,179,179)" stroke-linejoin="round" d="M 1255,3285 L 1405,3285"/>
 <path fill="none" stroke="rgb(179,179,179)" stroke-linejoin="round" d="M 1255,3285 L 1405,3285"/>
 <path fill="none" stroke="rgb(179,179,179)" stroke-linejoin="round" d="M 1255,1810 L 1405,1810"/>
 <path fill="none" stroke="rgb(179,179,179)" stroke-linejoin="round" d="M 1255,1810 L 1405,1810"/>
 <path fill="none" stroke="rgb(179,179,179)" stroke-linejoin="round" d="M 1255,334 L 1405,334"/>
 <path fill="none" stroke="rgb(179,179,179)" stroke-linejoin="round" d="M 1255,334 L 1405,334"/>
 <path fill="none" stroke="rgb(179,179,179)" stroke-linejoin="round" d="M 1405,15088 L 1405,334"/>
 <path fill="rgb(0,69,134)" stroke="none" d="M 1405,15088 L 2064,15088 2724,15088 3383,15088 4043,15088 4703,15088 5362,15088 6022,15088 6682,15088 7341,15088 8001,15088 8660,15088 9320,15088 9980,15088 10639,15088 11299,15088 11959,15088 12618,15088 13278,15088 13938,15088 14597,15088 15256,15088 15915,15088 16575,15088 17235,15088 17894,15088 18554,15088 19214,15088 19873,15088 20533,15088 21192,15088 21852,15088 22512,15088 23171,15088 23831,14379 24491,14379 25150,14379 25810,14379 26470,14379 26470,15088 1405,15088 Z"/>
 <path fill="rgb(255,66,14)" stroke="none" d="M 1405,15088 L 2064,15088 2724,15088 3383,15088 4043,15088 4703,15088 5362,15088 6022,15088 6682,15088 7341,15088 8001,15088 8660,15088 9320,15014 9980,15014 10639,15014 11299,15014 11959,15014 12618,15014 13278,15014 13938,15014 14597,15014 15256,15014 15915,15014 16575,15014 17235,15014 17894,15014 18554,15014 19214,15014 19873,15014 20533,15014 21192,15014 21852,15014 22512,15014 23171,15014 23831,14276 24491,14276 25150,14276 25810,14276 26470,14276 26470,14379 25810,14379 25150,14379 24491,14379 23831,14379 23171,15088 22512,15088 21852,15088 21192,15088 20533,15088 19873,15088 19214,15088 18554,15088 17894,15088 17235,15088 16575,15088 15915,15088 15256,15088 14597,15088 13938,15088 13278,15088 12618,15088 11959,15088 11299,15088 10639,15088 9980,15088 9320,15088 8660,15088 8001,15088 7341,15088 6682,15088 6022,15088 5362,15088 4703,15088 4043,15088 3383,15088 2724,15088 2064,15088 1405,15088 Z"/>
 <path fill="rgb(255,211,32)" stroke="none" d="M 1405,15088 L 2064,15088 2724,15088 3383,15088 4043,15088 4703,15088 5362,15088 6022,15088 6682,15088 7341,15088 8001,15088 8660,15088 9320,15014 9980,15014 10639,15014 11299,15014 11959,15014 12618,15014 13278,15014 13938,15014 14597,15014 15256,15014 15915,15014 16575,15014 17235,15014 17894,15014 18554,15014 19214,15014 19873,15014 20533,15014 21192,15014 21852,15014 22512,15014 23171,15014 23831,14232 24491,14232 25150,14232 25810,14232 26470,14232 26470,14276 25810,14276 25150,14276 24491,14276 23831,14276 23171,15014 22512,15014 21852,15014 21192,15014 20533,15014 19873,15014 19214,15014 18554,15014 17894,15014 17235,15014 16575,15014 15915,15014 15256,15014 14597,15014 13938,15014 13278,15014 12618,15014 11959,15014 11299,15014 10639,15014 9980,15014 9320,15014 8660,15088 8001,15088 7341,15088 6682,15088 6022,15088 5362,15088 4703,15088 4043,15088 3383,15088 2724,15088 2064,15088 1405,15088 Z"/>
 <path fill="rgb(87,157,28)" stroke="none" d="M 1405,15088 L 2064,15088 2724,15088 3383,15088 4043,15088 4703,15088 5362,15088 6022,15088 6682,15088 7341,15088 8001,15088 8660,15088 9320,15014 9980,15014 10639,15014 11299,15014 11959,15014 12618,15014 13278,15014 13938,15014 14597,15014 15256,15014 15915,15014 16575,15014 17235,15014 17894,15014 18554,14925 19214,14925 19873,14925 20533,14925 21192,14925 21852,14925 22512,14925 23171,14925 23831,14143 24491,14143 25150,14143 25810,14143 26470,14143 26470,14232 25810,14232 25150,14232 24491,14232 23831,14232 23171,15014 22512,15014 21852,15014 21192,15014 20533,15014 19873,15014 19214,15014 18554,15014 17894,15014 17235,15014 16575,15014 15915,15014 15256,15014 14597,15014 13938,15014 13278,15014 12618,15014 11959,15014 11299,15014 10639,15014 9980,15014 9320,15014 8660,15088 8001,15088 7341,15088 6682,15088 6022,15088 5362,15088 4703,15088 4043,15088 3383,15088 2724,15088 2064,15088 1405,15088 Z"/>
 <path fill="rgb(126,0,33)" stroke="none" d="M 1405,15028 L 2064,15028 2724,15028 3383,15028 4043,15028 4703,15028 5362,15028 6022,15028 6682,15028 7341,15028 8001,15028 8660,15028 9320,14955 9980,14955 10639,14955 11299,14955 11959,14955 12618,14955 13278,14955 13938,14955 14597,14955 15256,14955 15915,14955 16575,14955 17235,14955 17894,14955 18554,14866 19214,14866 19873,14866 20533,14866 21192,14866 21852,14866 22512,14866 23171,14866 23831,14084 24491,14084 25150,14084 25810,14084 26470,14084 26470,14143 25810,14143 25150,14143 24491,14143 23831,14143 23171,14925 22512,14925 21852,14925 21192,14925 20533,14925 19873,14925 19214,14925 18554,14925 17894,15014 17235,15014 16575,15014 15915,15014 15256,15014 14597,15014 13938,15014 13278,15014 12618,15014 11959,15014 11299,15014 10639,15014 9980,15014 9320,15014 8660,15088 8001,15088 7341,15088 6682,15088 6022,15088 5362,15088 4703,15088 4043,15088 3383,15088 2724,15088 2064,15088 1405,15088 1405,15028 Z"/>
 <path fill="rgb(131,202,255)" stroke="none" d="M 1405,14851 L 2064,14851 2724,14851 3383,14851 4043,14851 4703,14851 5362,14851 6022,14851 6682,14851 7341,14851 8001,14851 8660,14851 9320,14674 9980,14689 10639,14689 11299,14689 11959,14689 12618,14689 13278,14689 13938,14689 14597,14660 15256,14660 15915,14660 16575,14660 17235,14660 17894,14660 18554,14542 19214,14542 19873,14542 20533,14542 21192,14542 21852,14542 22512,14542 23171,14542 23831,13686 24491,13686 25150,13686 25810,13686 26470,13686 26470,14084 25810,14084 25150,14084 24491,14084 23831,14084 23171,14866 22512,14866 21852,14866 21192,14866 20533,14866 19873,14866 19214,14866 18554,14866 17894,14955 17235,14955 16575,14955 15915,14955 15256,14955 14597,14955 13938,14955 13278,14955 12618,14955 11959,14955 11299,14955 10639,14955 9980,14955 9320,14955 8660,15028 8001,15028 7341,15028 6682,15028 6022,15028 5362,15028 4703,15028 4043,15028 3383,15028 2724,15028 2064,15028 1405,15028 1405,14851 Z"/>
 <path fill="rgb(49,64,4)" stroke="none" d="M 1405,14851 L 2064,14851 2724,14851 3383,14851 4043,14851 4703,14851 5362,14851 6022,14851 6682,14851 7341,14851 8001,14851 8660,14851 9320,14497 9980,14512 10639,14512 11299,14512 11959,14512 12618,14512 13278,14512 13938,14512 14597,14483 15256,14483 15915,14483 16575,14483 17235,14483 17894,14483 18554,14365 19214,14365 19873,14365 20533,14365 21192,14365 21852,14365 22512,14365 23171,14365 23831,13509 24491,13509 25150,13509 25810,13509 26470,13509 26470,13686 25810,13686 25150,13686 24491,13686 23831,13686 23171,14542 22512,14542 21852,14542 21192,14542 20533,14542 19873,14542 19214,14542 18554,14542 17894,14660 17235,14660 16575,14660 15915,14660 15256,14660 14597,14660 13938,14689 13278,14689 12618,14689 11959,14689 11299,14689 10639,14689 9980,14689 9320,14674 8660,14851 8001,14851 7341,14851 6682,14851 6022,14851 5362,14851 4703,14851 4043,14851 3383,14851 2724,14851 2064,14851 1405,14851 Z"/>
 <path fill="rgb(174,207,0)" stroke="none" d="M 1405,14851 L 2064,14851 2724,14851 3383,14851 4043,14851 4703,14851 5362,14851 6022,14851 6682,14851 7341,14851 8001,14851 8660,14851 9320,14497 9980,14512 10639,14512 11299,14512 11959,14512 12618,14512 13278,14512 13938,14512 14597,14483 15256,14483 15915,14483 16575,14483 17235,14483 17894,14483 18554,14365 19214,14365 19873,14365 20533,14365 21192,14365 21852,14365 22512,14365 23171,14365 23831,13243 24491,13243 25150,13243 25810,13243 26470,13243 26470,13509 25810,13509 25150,13509 24491,13509 23831,13509 23171,14365 22512,14365 21852,14365 21192,14365 20533,14365 19873,14365 19214,14365 18554,14365 17894,14483 17235,14483 16575,14483 15915,14483 15256,14483 14597,14483 13938,14512 13278,14512 12618,14512 11959,14512 11299,14512 10639,14512 9980,14512 9320,14497 8660,14851 8001,14851 7341,14851 6682,14851 6022,14851 5362,14851 4703,14851 4043,14851 3383,14851 2724,14851 2064,14851 1405,14851 Z"/>
 <path fill="rgb(75,31,111)" stroke="none" d="M 1405,14851 L 2064,14851 2724,14851 3383,14851 4043,14851 4703,14851 5362,14851 6022,14851 6682,14851 7341,14851 8001,14851 8660,14851 9320,14497 9980,14512 10639,14512 11299,14512 11959,14512 12618,14497 13278,14497 13938,14497 14597,14468 15256,14468 15915,14468 16575,14468 17235,14468 17894,14468 18554,14350 19214,14350 19873,14350 20533,14350 21192,14350 21852,14350 22512,14350 23171,14350 23831,13228 24491,13228 25150,13228 25810,13228 26470,13228 26470,13243 25810,13243 25150,13243 24491,13243 23831,13243 23171,14365 22512,14365 21852,14365 21192,14365 20533,14365 19873,14365 19214,14365 18554,14365 17894,14483 17235,14483 16575,14483 15915,14483 15256,14483 14597,14483 13938,14512 13278,14512 12618,14512 11959,14512 11299,14512 10639,14512 9980,14512 9320,14497 8660,14851 8001,14851 7341,14851 6682,14851 6022,14851 5362,14851 4703,14851 4043,14851 3383,14851 2724,14851 2064,14851 1405,14851 Z"/>
 <path fill="rgb(255,149,14)" stroke="none" d="M 1405,14748 L 2064,14748 2724,14748 3383,14748 4043,14748 4703,14748 5362,14748 6022,14748 6682,14748 7341,14748 8001,14748 8660,14748 9320,14394 9980,14409 10639,14409 11299,14409 11959,14409 12618,14394 13278,14394 13938,14394 14597,14365 15256,14365 15915,14365 16575,14365 17235,14365 17894,14365 18554,14247 19214,14247 19873,14247 20533,14247 21192,14247 21852,14247 22512,14247 23171,14247 23831,12978 24491,12978 25150,12978 25810,12978 26470,12978 26470,13228 25810,13228 25150,13228 24491,13228 23831,13228 23171,14350 22512,14350 21852,14350 21192,14350 20533,14350 19873,14350 19214,14350 18554,14350 17894,14468 17235,14468 16575,14468 15915,14468 15256,14468 14597,14468 13938,14497 13278,14497 12618,14497 11959,14512 11299,14512 10639,14512 9980,14512 9320,14497 8660,14851 8001,14851 7341,14851 6682,14851 6022,14851 5362,14851 4703,14851 4043,14851 3383,14851 2724,14851 2064,14851 1405,14851 1405,14748 Z"/>
 <path fill="rgb(197,0,11)" stroke="none" d="M 1405,14733 L 2064,14733 2724,14733 3383,14733 4043,14733 4703,14733 5362,14733 6022,14733 6682,14733 7341,14733 8001,14733 8660,14733 9320,13450 9980,13376 10639,13376 11299,13376 11959,13376 12618,13347 13278,13361 13938,13391 14597,12801 15256,12801 15915,12801 16575,12801 17235,12801 17894,12801 18554,12447 19214,12447 19873,12432 20533,12432 21192,12432 21852,12432 22512,12432 23171,12432 23831,9909 24491,9909 25150,9909 25810,8346 26470,8331 26470,12978 25810,12978 25150,12978 24491,12978 23831,12978 23171,14247 22512,14247 21852,14247 21192,14247 20533,14247 19873,14247 19214,14247 18554,14247 17894,14365 17235,14365 16575,14365 15915,14365 15256,14365 14597,14365 13938,14394 13278,14394 12618,14394 11959,14409 11299,14409 10639,14409 9980,14409 9320,14394 8660,14748 8001,14748 7341,14748 6682,14748 6022,14748 5362,14748 4703,14748 4043,14748 3383,14748 2724,14748 2064,14748 1405,14748 1405,14733 Z"/>
 <path fill="rgb(0,132,209)" stroke="none" d="M 1405,14733 L 2064,14733 2724,14733 3383,14733 4043,14733 4703,14733 5362,14733 6022,14733 6682,14733 7341,14733 8001,14733 8660,14733 9320,12535 9980,12373 10639,12373 11299,12373 11959,12373 12618,12329 13278,12358 13938,12417 14597,11266 15256,11266 15915,11266 16575,11266 17235,11266 17894,11266 18554,10676 19214,10676 19873,10647 20533,10647 21192,10647 21852,10647 22512,10647 23171,10647 23831,6885 24491,6885 25150,6885 25810,3757 26470,3728 26470,8331 25810,8346 25150,9909 24491,9909 23831,9909 23171,12432 22512,12432 21852,12432 21192,12432 20533,12432 19873,12432 19214,12447 18554,12447 17894,12801 17235,12801 16575,12801 15915,12801 15256,12801 14597,12801 13938,13391 13278,13361 12618,13347 11959,13376 11299,13376 10639,13376 9980,13376 9320,13450 8660,14733 8001,14733 7341,14733 6682,14733 6022,14733 5362,14733 4703,14733 4043,14733 3383,14733 2724,14733 2064,14733 1405,14733 Z"/>
 <path fill="rgb(0,69,134)" stroke="none" d="M 1405,14586 L 2064,14586 2724,14586 3383,14586 4043,14586 4703,14586 5362,14586 6022,14586 6682,14586 7341,14586 8001,14586 8660,14586 9320,12388 9980,12225 10639,12225 11299,12225 11959,12225 12618,12181 13278,12210 13938,12269 14597,11119 15256,11119 15915,11119 16575,11119 17235,11119 17894,11119 18554,10469 19214,10469 19873,10440 20533,10440 21192,10440 21852,10440 22512,10440 23171,10440 23831,6664 24491,6664 25150,6664 25810,3536 26470,3507 26470,3728 25810,3757 25150,6885 24491,6885 23831,6885 23171,10647 22512,10647 21852,10647 21192,10647 20533,10647 19873,10647 19214,10676 18554,10676 17894,11266 17235,11266 16575,11266 15915,11266 15256,11266 14597,11266 13938,12417 13278,12358 12618,12329 11959,12373 11299,12373 10639,12373 9980,12373 9320,12535 8660,14733 8001,14733 7341,14733 6682,14733 6022,14733 5362,14733 4703,14733 4043,14733 3383,14733 2724,14733 2064,14733 1405,14733 1405,14586 Z"/>
 <path fill="rgb(255,66,14)" stroke="none" d="M 1405,14586 L 2064,14586 2724,14586 3383,14586 4043,14586 4703,14586 5362,14586 6022,14586 6682,14586 7341,14586 8001,14586 8660,14586 9320,12388 9980,12225 10639,12225 11299,12225 11959,12225 12618,12181 13278,12210 13938,12269 14597,11119 15256,11119 15915,11119 16575,11119 17235,11119 17894,11119 18554,10469 19214,10469 19873,10440 20533,10440 21192,10440 21852,10440 22512,10440 23171,10440 23831,6575 24491,6575 25150,6575 25810,3448 26470,3418 26470,3507 25810,3536 25150,6664 24491,6664 23831,6664 23171,10440 22512,10440 21852,10440 21192,10440 20533,10440 19873,10440 19214,10469 18554,10469 17894,11119 17235,11119 16575,11119 15915,11119 15256,11119 14597,11119 13938,12269 13278,12210 12618,12181 11959,12225 11299,12225 10639,12225 9980,12225 9320,12388 8660,14586 8001,14586 7341,14586 6682,14586 6022,14586 5362,14586 4703,14586 4043,14586 3383,14586 2724,14586 2064,14586 1405,14586 Z"/>
 <path fill="rgb(255,211,32)" stroke="none" d="M 1405,14586 L 2064,14586 2724,14586 3383,14586 4043,14586 4703,14586 5362,14586 6022,14586 6682,14586 7341,14586 8001,14586 8660,14586 9320,12299 9980,12137 10639,12137 11299,12137 11959,12137 12618,12092 13278,12122 13938,12181 14597,11030 15256,11030 15915,11030 16575,11030 17235,11030 17894,11030 18554,10381 19214,10381 19873,10351 20533,10351 21192,10351 21852,10351 22512,10351 23171,10351 23831,6487 24491,6487 25150,6487 25810,3359 26470,3330 26470,3418 25810,3448 25150,6575 24491,6575 23831,6575 23171,10440 22512,10440 21852,10440 21192,10440 20533,10440 19873,10440 19214,10469 18554,10469 17894,11119 17235,11119 16575,11119 15915,11119 15256,11119 14597,11119 13938,12269 13278,12210 12618,12181 11959,12225 11299,12225 10639,12225 9980,12225 9320,12388 8660,14586 8001,14586 7341,14586 6682,14586 6022,14586 5362,14586 4703,14586 4043,14586 3383,14586 2724,14586 2064,14586 1405,14586 Z"/>
 <path fill="rgb(87,157,28)" stroke="none" d="M 1405,14586 L 2064,14586 2724,14586 3383,14586 4043,14586 4703,14586 5362,14586 6022,14586 6682,14586 7341,14586 8001,14586 8660,14586 9320,12255 9980,12092 10639,12092 11299,12092 11959,12092 12618,12048 13278,12078 13938,12137 14597,10986 15256,10986 15915,10986 16575,10986 17235,10986 17894,10986 18554,10337 19214,10337 19873,10307 20533,10307 21192,10307 21852,10307 22512,10307 23171,10307 23831,6443 24491,6443 25150,6443 25810,3315 26470,3285 26470,3330 25810,3359 25150,6487 24491,6487 23831,6487 23171,10351 22512,10351 21852,10351 21192,10351 20533,10351 19873,10351 19214,10381 18554,10381 17894,11030 17235,11030 16575,11030 15915,11030 15256,11030 14597,11030 13938,12181 13278,12122 12618,12092 11959,12137 11299,12137 10639,12137 9980,12137 9320,12299 8660,14586 8001,14586 7341,14586 6682,14586 6022,14586 5362,14586 4703,14586 4043,14586 3383,14586 2724,14586 2064,14586 1405,14586 Z"/>
 <path fill="rgb(126,0,33)" stroke="none" d="M 1405,14527 L 2064,14527 2724,14527 3383,14527 4043,14527 4703,14527 5362,14527 6022,14527 6682,14527 7341,14527 8001,14527 8660,14527 9320,12181 9980,12019 10639,12019 11299,12019 11959,12019 12618,11974 13278,12004 13938,12063 14597,10883 15256,10883 15915,10883 16575,10883 17235,10883 17894,10883 18554,10189 19214,10189 19873,10160 20533,10160 21192,10160 21852,10160 22512,10160 23171,10160 23831,6266 24491,6266 25150,6266 25810,3138 26470,3108 26470,3285 25810,3315 25150,6443 24491,6443 23831,6443 23171,10307 22512,10307 21852,10307 21192,10307 20533,10307 19873,10307 19214,10337 18554,10337 17894,10986 17235,10986 16575,10986 15915,10986 15256,10986 14597,10986 13938,12137 13278,12078 12618,12048 11959,12092 11299,12092 10639,12092 9980,12092 9320,12255 8660,14586 8001,14586 7341,14586 6682,14586 6022,14586 5362,14586 4703,14586 4043,14586 3383,14586 2724,14586 2064,14586 1405,14586 1405,14527 Z"/>
 <path fill="rgb(131,202,255)" stroke="none" d="M 1405,14527 L 2064,14527 2724,14527 3383,14527 4043,14527 4703,14527 5362,14527 6022,14527 6682,14527 7341,14527 8001,14527 8660,14527 9320,12181 9980,12019 10639,12019 11299,12019 11959,12019 12618,11974 13278,12004 13938,12063 14597,10883 15256,10883 15915,10883 16575,10883 17235,10883 17894,10883 18554,10189 19214,10189 19873,10160 20533,10160 21192,10160 21852,10160 22512,10160 23171,10160 23831,6192 24491,6192 25150,6192 25810,3064 26470,3034 26470,3108 25810,3138 25150,6266 24491,6266 23831,6266 23171,10160 22512,10160 21852,10160 21192,10160 20533,10160 19873,10160 19214,10189 18554,10189 17894,10883 17235,10883 16575,10883 15915,10883 15256,10883 14597,10883 13938,12063 13278,12004 12618,11974 11959,12019 11299,12019 10639,12019 9980,12019 9320,12181 8660,14527 8001,14527 7341,14527 6682,14527 6022,14527 5362,14527 4703,14527 4043,14527 3383,14527 2724,14527 2064,14527 1405,14527 Z"/>
 <path fill="rgb(49,64,4)" stroke="none" d="M 1405,14438 L 2064,14438 2724,14438 3383,14438 4043,14438 4703,14438 5362,14438 6022,14438 6682,14438 7341,14438 8001,14438 8660,14438 9320,12063 9980,11901 10639,11901 11299,11901 11959,11901 12618,11856 13278,11886 13938,11945 14597,10735 15256,10735 15915,10735 16575,10735 17235,10735 17894,10735 18554,10027 19214,10027 19873,9997 20533,9997 21192,9997 21852,9997 22512,9997 23171,9997 23831,6030 24491,6030 25150,6030 25810,2902 26470,2872 26470,3034 25810,3064 25150,6192 24491,6192 23831,6192 23171,10160 22512,10160 21852,10160 21192,10160 20533,10160 19873,10160 19214,10189 18554,10189 17894,10883 17235,10883 16575,10883 15915,10883 15256,10883 14597,10883 13938,12063 13278,12004 12618,11974 11959,12019 11299,12019 10639,12019 9980,12019 9320,12181 8660,14527 8001,14527 7341,14527 6682,14527 6022,14527 5362,14527 4703,14527 4043,14527 3383,14527 2724,14527 2064,14527 1405,14527 1405,14438 Z"/>
 <path fill="rgb(174,207,0)" stroke="none" d="M 1405,14438 L 2064,14438 2724,14438 3383,14438 4043,14438 4703,14438 5362,14438 6022,14438 6682,14438 7341,14438 8001,14438 8660,14438 9320,12063 9980,11901 10639,11901 11299,11901 11959,11901 12618,11856 13278,11886 13938,11945 14597,10735 15256,10735 15915,10735 16575,10735 17235,10735 17894,10735 18554,10027 19214,10027 19873,9997 20533,9997 21192,9997 21852,9997 22512,9997 23171,9997 23831,5882 24491,5882 25150,5882 25810,2754 26470,2725 26470,2872 25810,2902 25150,6030 24491,6030 23831,6030 23171,9997 22512,9997 21852,9997 21192,9997 20533,9997 19873,9997 19214,10027 18554,10027 17894,10735 17235,10735 16575,10735 15915,10735 15256,10735 14597,10735 13938,11945 13278,11886 12618,11856 11959,11901 11299,11901 10639,11901 9980,11901 9320,12063 8660,14438 8001,14438 7341,14438 6682,14438 6022,14438 5362,14438 4703,14438 4043,14438 3383,14438 2724,14438 2064,14438 1405,14438 Z"/>
 <path fill="rgb(75,31,111)" stroke="none" d="M 1405,14438 L 2064,14438 2724,14438 3383,14438 4043,14438 4703,14438 5362,14438 6022,14438 6682,14438 7341,14438 8001,14438 8660,14438 9320,12063 9980,11901 10639,11901 11299,11901 11959,11901 12618,11856 13278,11886 13938,11945 14597,10735 15256,10735 15915,10735 16575,10735 17235,10735 17894,10735 18554,10027 19214,10027 19873,9997 20533,9997 21192,9997 21852,9997 22512,9997 23171,9997 23831,5852 24491,5852 25150,5852 25810,2725 26470,2695 26470,2725 25810,2754 25150,5882 24491,5882 23831,5882 23171,9997 22512,9997 21852,9997 21192,9997 20533,9997 19873,9997 19214,10027 18554,10027 17894,10735 17235,10735 16575,10735 15915,10735 15256,10735 14597,10735 13938,11945 13278,11886 12618,11856 11959,11901 11299,11901 10639,11901 9980,11901 9320,12063 8660,14438 8001,14438 7341,14438 6682,14438 6022,14438 5362,14438 4703,14438 4043,14438 3383,14438 2724,14438 2064,14438 1405,14438 Z"/>
 <path fill="rgb(255,149,14)" stroke="none" d="M 1405,14438 L 2064,14438 2724,14438 3383,14438 4043,14438 4703,14438 5362,14438 6022,14438 6682,14438 7341,14438 8001,14438 8660,14438 9320,12063 9980,11901 10639,11901 11299,11901 11959,11901 12618,11856 13278,11886 13938,11945 14597,9997 15256,9997 15915,9997 16575,9997 17235,9997 17894,9997 18554,9289 19214,9289 19873,9260 20533,9260 21192,9260 21852,9260 22512,9260 23171,9260 23831,5115 24491,5115 25150,5115 25810,1987 26470,1957 26470,2695 25810,2725 25150,5852 24491,5852 23831,5852 23171,9997 22512,9997 21852,9997 21192,9997 20533,9997 19873,9997 19214,10027 18554,10027 17894,10735 17235,10735 16575,10735 15915,10735 15256,10735 14597,10735 13938,11945 13278,11886 12618,11856 11959,11901 11299,11901 10639,11901 9980,11901 9320,12063 8660,14438 8001,14438 7341,14438 6682,14438 6022,14438 5362,14438 4703,14438 4043,14438 3383,14438 2724,14438 2064,14438 1405,14438 Z"/>
 <path fill="rgb(197,0,11)" stroke="none" d="M 1405,14438 L 2064,14438 2724,14438 3383,14438 4043,14438 4703,14438 5362,14438 6022,14438 6682,14438 7341,14438 8001,14438 8660,14438 9320,11915 9980,11753 10639,11753 11299,11753 11959,11753 12618,11709 13278,11738 13938,11797 14597,9850 15256,9835 15915,9835 16575,9835 17235,9835 17894,9835 18554,9127 19214,9127 19873,9097 20533,9097 21192,9097 21852,9097 22512,9097 23171,9097 23831,4953 24491,4953 25150,4953 25810,1825 26470,1795 26470,1957 25810,1987 25150,5115 24491,5115 23831,5115 23171,9260 22512,9260 21852,9260 21192,9260 20533,9260 19873,9260 19214,9289 18554,9289 17894,9997 17235,9997 16575,9997 15915,9997 15256,9997 14597,9997 13938,11945 13278,11886 12618,11856 11959,11901 11299,11901 10639,11901 9980,11901 9320,12063 8660,14438 8001,14438 7341,14438 6682,14438 6022,14438 5362,14438 4703,14438 4043,14438 3383,14438 2724,14438 2064,14438 1405,14438 Z"/>
 <path fill="rgb(0,132,209)" stroke="none" d="M 1405,14409 L 2064,14409 2724,14409 3383,14409 4043,14409 4703,14409 5362,14409 6022,14409 6682,14409 7341,14409 8001,14409 8660,14409 9320,11886 9980,11753 10639,11753 11299,11753 11959,11753 12618,11709 13278,11738 13938,11797 14597,9850 15256,9835 15915,9835 16575,9835 17235,9835 17894,9835 18554,8773 19214,8773 19873,8743 20533,8743 21192,8743 21852,8743 22512,8743 23171,8743 23831,4953 24491,4953 25150,4953 25810,1825 26470,1795 26470,1795 25810,1825 25150,4953 24491,4953 23831,4953 23171,9097 22512,9097 21852,9097 21192,9097 20533,9097 19873,9097 19214,9127 18554,9127 17894,9835 17235,9835 16575,9835 15915,9835 15256,9835 14597,9850 13938,11797 13278,11738 12618,11709 11959,11753 11299,11753 10639,11753 9980,11753 9320,11915 8660,14438 8001,14438 7341,14438 6682,14438 6022,14438 5362,14438 4703,14438 4043,14438 3383,14438 2724,14438 2064,14438 1405,14438 1405,14409 Z"/>
 <path fill="rgb(0,69,134)" stroke="none" d="M 1405,14306 L 2064,14306 2724,14306 3383,14306 4043,14306 4703,14306 5362,14306 6022,14306 6682,14306 7341,14306 8001,14306 8660,14306 9320,11753 9980,11620 10639,11620 11299,11620 11959,11620 12618,11576 13278,11606 13938,11665 14597,9717 15256,9702 15915,9702 16575,9702 17235,9702 17894,9702 18554,8640 19214,8640 19873,8610 20533,8610 21192,8610 21852,8610 22512,8610 23171,8610 23831,4716 24491,4716 25150,4716 25810,1574 26470,1544 26470,1795 25810,1825 25150,4953 24491,4953 23831,4953 23171,8743 22512,8743 21852,8743 21192,8743 20533,8743 19873,8743 19214,8773 18554,8773 17894,9835 17235,9835 16575,9835 15915,9835 15256,9835 14597,9850 13938,11797 13278,11738 12618,11709 11959,11753 11299,11753 10639,11753 9980,11753 9320,11886 8660,14409 8001,14409 7341,14409 6682,14409 6022,14409 5362,14409 4703,14409 4043,14409 3383,14409 2724,14409 2064,14409 1405,14409 1405,14306 Z"/>
 <path fill="rgb(255,66,14)" stroke="none" d="M 1405,14306 L 2064,14306 2724,14306 3383,14306 4043,14306 4703,14306 5362,14306 6022,14306 6682,14306 7341,14306 8001,14306 8660,14306 9320,11753 9980,11620 10639,11620 11299,11620 11959,11620 12618,11576 13278,11606 13938,11665 14597,9717 15256,9702 15915,9702 16575,9702 17235,9702 17894,9702 18554,8640 19214,8640 19873,8610 20533,8610 21192,8610 21852,8610 22512,8610 23171,8610 23831,4598 24491,4598 25150,4598 25810,1456 26470,1426 26470,1544 25810,1574 25150,4716 24491,4716 23831,4716 23171,8610 22512,8610 21852,8610 21192,8610 20533,8610 19873,8610 19214,8640 18554,8640 17894,9702 17235,9702 16575,9702 15915,9702 15256,9702 14597,9717 13938,11665 13278,11606 12618,11576 11959,11620 11299,11620 10639,11620 9980,11620 9320,11753 8660,14306 8001,14306 7341,14306 6682,14306 6022,14306 5362,14306 4703,14306 4043,14306 3383,14306 2724,14306 2064,14306 1405,14306 Z"/>
 <text class="TextShape" transform="translate(1357,15695) rotate(-44.9) translate(-1357,-15695)"><tspan class="TextParagraph" font-family="Liberation Sans, sans-serif" font-size="353px" font-weight="400"><tspan class="TextPosition" x="1357" y="15695"><tspan fill="rgb(0,0,0)" stroke="none">2</tspan></tspan></tspan></text>
 <text class="TextShape" transform="translate(1604,16106) rotate(-44.9) translate(-1604,-16106)"><tspan class="TextParagraph" font-family="Liberation Sans, sans-serif" font-size="353px" font-weight="400"><tspan class="TextPosition" x="1604" y="16106"><tspan fill="rgb(0,0,0)" stroke="none">2.0.1</tspan></tspan></tspan></text>
 <text class="TextShape" transform="translate(2264,16106) rotate(-44.9) translate(-2264,-16106)"><tspan class="TextParagraph" font-family="Liberation Sans, sans-serif" font-size="353px" font-weight="400"><tspan class="TextPosition" x="2264" y="16106"><tspan fill="rgb(0,0,0)" stroke="none">2.0.2</tspan></tspan></tspan></text>
 <text class="TextShape" transform="translate(2923,16106) rotate(-44.9) translate(-2923,-16106)"><tspan class="TextParagraph" font-family="Liberation Sans, sans-serif" font-size="353px" font-weight="400"><tspan class="TextPosition" x="2923" y="16106"><tspan fill="rgb(0,0,0)" stroke="none">2.0.3</tspan></tspan></tspan></text>
 <text class="TextShape" transform="translate(3583,16106) rotate(-44.9) translate(-3583,-16106)"><tspan class="TextParagraph" font-family="Liberation Sans, sans-serif" font-size="353px" font-weight="400"><tspan class="TextPosition" x="3583" y="16106"><tspan fill="rgb(0,0,0)" stroke="none">2.0.4</tspan></tspan></tspan></text>
 <text class="TextShape" transform="translate(4243,16106) rotate(-44.9) translate(-4243,-16106)"><tspan class="TextParagraph" font-family="Liberation Sans, sans-serif" font-size="353px" font-weight="400"><tspan class="TextPosition" x="4243" y="16106"><tspan fill="rgb(0,0,0)" stroke="none">2.0.5</tspan></tspan></tspan></text>
 <text class="TextShape" transform="translate(4902,16106) rotate(-44.9) translate(-4902,-16106)"><tspan class="TextParagraph" font-family="Liberation Sans, sans-serif" font-size="353px" font-weight="400"><tspan class="TextPosition" x="4902" y="16106"><tspan fill="rgb(0,0,0)" stroke="none">2.0.6</tspan></tspan></tspan></text>
 <text class="TextShape" transform="translate(5562,16106) rotate(-44.9) translate(-5562,-16106)"><tspan class="TextParagraph" font-family="Liberation Sans, sans-serif" font-size="353px" font-weight="400"><tspan class="TextPosition" x="5562" y="16106"><tspan fill="rgb(0,0,0)" stroke="none">2.0.7</tspan></tspan></tspan></text>
 <text class="TextShape" transform="translate(6222,16106) rotate(-44.9) translate(-6222,-16106)"><tspan class="TextParagraph" font-family="Liberation Sans, sans-serif" font-size="353px" font-weight="400"><tspan class="TextPosition" x="6222" y="16106"><tspan fill="rgb(0,0,0)" stroke="none">2.0.8</tspan></tspan></tspan></text>
 <text class="TextShape" transform="translate(6881,16106) rotate(-44.9) translate(-6881,-16106)"><tspan class="TextParagraph" font-family="Liberation Sans, sans-serif" font-size="353px" font-weight="400"><tspan class="TextPosition" x="6881" y="16106"><tspan fill="rgb(0,0,0)" stroke="none">2.0.9</tspan></tspan></tspan></text>
 <text class="TextShape" transform="translate(7410,16237) rotate(-44.9) translate(-7410,-16237)"><tspan class="TextParagraph" font-family="Liberation Sans, sans-serif" font-size="353px" font-weight="400"><tspan class="TextPosition" x="7410" y="16237"><tspan fill="rgb(0,0,0)" stroke="none">2.0.10</tspan></tspan></tspan></text>
 <text class="TextShape" transform="translate(8069,16237) rotate(-44.9) translate(-8069,-16237)"><tspan class="TextParagraph" font-family="Liberation Sans, sans-serif" font-size="353px" font-weight="400"><tspan class="TextPosition" x="8069" y="16237"><tspan fill="rgb(0,0,0)" stroke="none">2.0.11</tspan></tspan></tspan></text>
 <text class="TextShape" transform="translate(9272,15695) rotate(-44.9) translate(-9272,-15695)"><tspan class="TextParagraph" font-family="Liberation Sans, sans-serif" font-size="353px" font-weight="400"><tspan class="TextPosition" x="9272" y="15695"><tspan fill="rgb(0,0,0)" stroke="none">3</tspan></tspan></tspan></text>
 <text class="TextShape" transform="translate(9520,16106) rotate(-44.9) translate(-9520,-16106)"><tspan class="TextParagraph" font-family="Liberation Sans, sans-serif" font-size="353px" font-weight="400"><tspan class="TextPosition" x="9520" y="16106"><tspan fill="rgb(0,0,0)" stroke="none">3.0.1</tspan></tspan></tspan></text>
 <text class="TextShape" transform="translate(10179,16106) rotate(-44.9) translate(-10179,-16106)"><tspan class="TextParagraph" font-family="Liberation Sans, sans-serif" font-size="353px" font-weight="400"><tspan class="TextPosition" x="10179" y="16106"><tspan fill="rgb(0,0,0)" stroke="none">3.0.2</tspan></tspan></tspan></text>
 <text class="TextShape" transform="translate(11046,15899) rotate(-44.9) translate(-11046,-15899)"><tspan class="TextParagraph" font-family="Liberation Sans, sans-serif" font-size="353px" font-weight="400"><tspan class="TextPosition" x="11046" y="15899"><tspan fill="rgb(0,0,0)" stroke="none">3.1</tspan></tspan></tspan></text>
 <text class="TextShape" transform="translate(11499,16106) rotate(-44.9) translate(-11499,-16106)"><tspan class="TextParagraph" font-family="Liberation Sans, sans-serif" font-size="353px" font-weight="400"><tspan class="TextPosition" x="11499" y="16106"><tspan fill="rgb(0,0,0)" stroke="none">3.1.1</tspan></tspan></tspan></text>
 <text class="TextShape" transform="translate(12158,16106) rotate(-44.9) translate(-12158,-16106)"><tspan class="TextParagraph" font-family="Liberation Sans, sans-serif" font-size="353px" font-weight="400"><tspan class="TextPosition" x="12158" y="16106"><tspan fill="rgb(0,0,0)" stroke="none">3.1.2</tspan></tspan></tspan></text>
 <text class="TextShape" transform="translate(12818,16106) rotate(-44.9) translate(-12818,-16106)"><tspan class="TextParagraph" font-family="Liberation Sans, sans-serif" font-size="353px" font-weight="400"><tspan class="TextPosition" x="12818" y="16106"><tspan fill="rgb(0,0,0)" stroke="none">3.1.3</tspan></tspan></tspan></text>
 <text class="TextShape" transform="translate(13478,16106) rotate(-44.9) translate(-13478,-16106)"><tspan class="TextParagraph" font-family="Liberation Sans, sans-serif" font-size="353px" font-weight="400"><tspan class="TextPosition" x="13478" y="16106"><tspan fill="rgb(0,0,0)" stroke="none">3.1.4</tspan></tspan></tspan></text>
 <text class="TextShape" transform="translate(14344,15899) rotate(-44.9) translate(-14344,-15899)"><tspan class="TextParagraph" font-family="Liberation Sans, sans-serif" font-size="353px" font-weight="400"><tspan class="TextPosition" x="14344" y="15899"><tspan fill="rgb(0,0,0)" stroke="none">3.2</tspan></tspan></tspan></text>
 <text class="TextShape" transform="translate(14797,16106) rotate(-44.9) translate(-14797,-16106)"><tspan class="TextParagraph" font-family="Liberation Sans, sans-serif" font-size="353px" font-weight="400"><tspan class="TextPosition" x="14797" y="16106"><tspan fill="rgb(0,0,0)" stroke="none">3.2.1</tspan></tspan></tspan></text>
 <text class="TextShape" transform="translate(15456,16106) rotate(-44.9) translate(-15456,-16106)"><tspan class="TextParagraph" font-family="Liberation Sans, sans-serif" font-size="353px" font-weight="400"><tspan class="TextPosition" x="15456" y="16106"><tspan fill="rgb(0,0,0)" stroke="none">3.2.2</tspan></tspan></tspan></text>
 <text class="TextShape" transform="translate(16116,16106) rotate(-44.9) translate(-16116,-16106)"><tspan class="TextParagraph" font-family="Liberation Sans, sans-serif" font-size="353px" font-weight="400"><tspan class="TextPosition" x="16116" y="16106"><tspan fill="rgb(0,0,0)" stroke="none">3.2.3</tspan></tspan></tspan></text>
 <text class="TextShape" transform="translate(16776,16106) rotate(-44.9) translate(-16776,-16106)"><tspan class="TextParagraph" font-family="Liberation Sans, sans-serif" font-size="353px" font-weight="400"><tspan class="TextPosition" x="16776" y="16106"><tspan fill="rgb(0,0,0)" stroke="none">3.2.4</tspan></tspan></tspan></text>
 <text class="TextShape" transform="translate(17435,16106) rotate(-44.9) translate(-17435,-16106)"><tspan class="TextParagraph" font-family="Liberation Sans, sans-serif" font-size="353px" font-weight="400"><tspan class="TextPosition" x="17435" y="16106"><tspan fill="rgb(0,0,0)" stroke="none">3.2.5</tspan></tspan></tspan></text>
 <text class="TextShape" transform="translate(18095,16106) rotate(-44.9) translate(-18095,-16106)"><tspan class="TextParagraph" font-family="Liberation Sans, sans-serif" font-size="353px" font-weight="400"><tspan class="TextPosition" x="18095" y="16106"><tspan fill="rgb(0,0,0)" stroke="none">4.0.0</tspan></tspan></tspan></text>
 <text class="TextShape" transform="translate(18755,16106) rotate(-44.9) translate(-18755,-16106)"><tspan class="TextParagraph" font-family="Liberation Sans, sans-serif" font-size="353px" font-weight="400"><tspan class="TextPosition" x="18755" y="16106"><tspan fill="rgb(0,0,0)" stroke="none">4.0.1</tspan></tspan></tspan></text>
 <text class="TextShape" transform="translate(19414,16106) rotate(-44.9) translate(-19414,-16106)"><tspan class="TextParagraph" font-family="Liberation Sans, sans-serif" font-size="353px" font-weight="400"><tspan class="TextPosition" x="19414" y="16106"><tspan fill="rgb(0,0,0)" stroke="none">4.0.2</tspan></tspan></tspan></text>
 <text class="TextShape" transform="translate(20074,16106) rotate(-44.9) translate(-20074,-16106)"><tspan class="TextParagraph" font-family="Liberation Sans, sans-serif" font-size="353px" font-weight="400"><tspan class="TextPosition" x="20074" y="16106"><tspan fill="rgb(0,0,0)" stroke="none">4.0.3</tspan></tspan></tspan></text>
 <text class="TextShape" transform="translate(20733,16106) rotate(-44.9) translate(-20733,-16106)"><tspan class="TextParagraph" font-family="Liberation Sans, sans-serif" font-size="353px" font-weight="400"><tspan class="TextPosition" x="20733" y="16106"><tspan fill="rgb(0,0,0)" stroke="none">4.0.4</tspan></tspan></tspan></text>
 <text class="TextShape" transform="translate(21392,16106) rotate(-44.9) translate(-21392,-16106)"><tspan class="TextParagraph" font-family="Liberation Sans, sans-serif" font-size="353px" font-weight="400"><tspan class="TextPosition" x="21392" y="16106"><tspan fill="rgb(0,0,0)" stroke="none">4.0.5</tspan></tspan></tspan></text>
 <text class="TextShape" transform="translate(22052,16106) rotate(-44.9) translate(-22052,-16106)"><tspan class="TextParagraph" font-family="Liberation Sans, sans-serif" font-size="353px" font-weight="400"><tspan class="TextPosition" x="22052" y="16106"><tspan fill="rgb(0,0,0)" stroke="none">4.0.6</tspan></tspan></tspan></text>
 <text class="TextShape" transform="translate(22711,16106) rotate(-44.9) translate(-22711,-16106)"><tspan class="TextParagraph" font-family="Liberation Sans, sans-serif" font-size="353px" font-weight="400"><tspan class="TextPosition" x="22711" y="16106"><tspan fill="rgb(0,0,0)" stroke="none">4.0.7</tspan></tspan></tspan></text>
 <text class="TextShape" transform="translate(23371,16106) rotate(-44.9) translate(-23371,-16106)"><tspan class="TextParagraph" font-family="Liberation Sans, sans-serif" font-size="353px" font-weight="400"><tspan class="TextPosition" x="23371" y="16106"><tspan fill="rgb(0,0,0)" stroke="none">4.1.0</tspan></tspan></tspan></text>
 <text class="TextShape" transform="translate(24031,16106) rotate(-44.9) translate(-24031,-16106)"><tspan class="TextParagraph" font-family="Liberation Sans, sans-serif" font-size="353px" font-weight="400"><tspan class="TextPosition" x="24031" y="16106"><tspan fill="rgb(0,0,0)" stroke="none">4.1.1</tspan></tspan></tspan></text>
 <text class="TextShape" transform="translate(24690,16106) rotate(-44.9) translate(-24690,-16106)"><tspan class="TextParagraph" font-family="Liberation Sans, sans-serif" font-size="353px" font-weight="400"><tspan class="TextPosition" x="24690" y="16106"><tspan fill="rgb(0,0,0)" stroke="none">4.1.2</tspan></tspan></tspan></text>
 <text class="TextShape" transform="translate(25350,16106) rotate(-44.9) translate(-25350,-16106)"><tspan class="TextParagraph" font-family="Liberation Sans, sans-serif" font-size="353px" font-weight="400"><tspan class="TextPosition" x="25350" y="16106"><tspan fill="rgb(0,0,0)" stroke="none">4.1.3</tspan></tspan></tspan></text>
 <text class="TextShape" transform="translate(26010,16106) rotate(-44.9) translate(-26010,-16106)"><tspan class="TextParagraph" font-family="Liberation Sans, sans-serif" font-size="353px" font-weight="400"><tspan class="TextPosition" x="26010" y="16106"><tspan fill="rgb(0,0,0)" stroke="none">4.1.4</tspan></tspan></tspan></text>
 <text class="TextShape"><tspan class="TextParagraph" font-family="Liberation Sans, sans-serif" font-size="353px" font-weight="400"><tspan class="TextPosition" x="970" y="15209"><tspan fill="rgb(0,0,0)" stroke="none">0</tspan></tspan></tspan></text>
 <text class="TextShape"><tspan class="TextParagraph" font-family="Liberation Sans, sans-serif" font-size="353px" font-weight="400"><tspan class="TextPosition" x="599" y="13733"><tspan fill="rgb(0,0,0)" stroke="none">100</tspan></tspan></tspan></text>
 <text class="TextShape"><tspan class="TextParagraph" font-family="Liberation Sans, sans-serif" font-size="353px" font-weight="400"><tspan class="TextPosition" x="599" y="12258"><tspan fill="rgb(0,0,0)" stroke="none">200</tspan></tspan></tspan></text>
 <text class="TextShape"><tspan class="TextParagraph" font-family="Liberation Sans, sans-serif" font-size="353px" font-weight="400"><tspan class="TextPosition" x="599" y="10782"><tspan fill="rgb(0,0,0)" stroke="none">300</tspan></tspan></tspan></text>
 <text class="TextShape"><tspan class="TextParagraph" font-family="Liberation Sans, sans-serif" font-size="353px" font-weight="400"><tspan class="TextPosition" x="599" y="9307"><tspan fill="rgb(0,0,0)" stroke="none">400</tspan></tspan></tspan></text>
 <text class="TextShape"><tspan class="TextParagraph" font-family="Liberation Sans, sans-serif" font-size="353px" font-weight="400"><tspan class="TextPosition" x="599" y="7831"><tspan fill="rgb(0,0,0)" stroke="none">500</tspan></tspan></tspan></text>
 <text class="TextShape"><tspan class="TextParagraph" font-family="Liberation Sans, sans-serif" font-size="353px" font-weight="400"><tspan class="TextPosition" x="599" y="6356"><tspan fill="rgb(0,0,0)" stroke="none">600</tspan></tspan></tspan></text>
 <text class="TextShape"><tspan class="TextParagraph" font-family="Liberation Sans, sans-serif" font-size="353px" font-weight="400"><tspan class="TextPosition" x="599" y="4881"><tspan fill="rgb(0,0,0)" stroke="none">700</tspan></tspan></tspan></text>
 <text class="TextShape"><tspan class="TextParagraph" font-family="Liberation Sans, sans-serif" font-size="353px" font-weight="400"><tspan class="TextPosition" x="599" y="3405"><tspan fill="rgb(0,0,0)" stroke="none">800</tspan></tspan></tspan></text>
 <text class="TextShape"><tspan class="TextParagraph" font-family="Liberation Sans, sans-serif" font-size="353px" font-weight="400"><tspan class="TextPosition" x="599" y="1930"><tspan fill="rgb(0,0,0)" stroke="none">900</tspan></tspan></tspan></text>
 <text class="TextShape"><tspan class="TextParagraph" font-family="Liberation Sans, sans-serif" font-size="353px" font-weight="400"><tspan class="TextPosition" x="414" y="454"><tspan fill="rgb(0,0,0)" stroke="none">1000</tspan></tspan></tspan></text>
 <path fill="rgb(0,69,134)" stroke="none" d="M 27614,14744 L 27508,14744 27508,14533 27719,14533 27719,14744 27614,14744 Z"/>
 <path fill="rgb(255,66,14)" stroke="none" d="M 27614,14246 L 27508,14246 27508,14035 27719,14035 27719,14246 27614,14246 Z"/>
 <path fill="rgb(255,211,32)" stroke="none" d="M 27614,13748 L 27508,13748 27508,13537 27719,13537 27719,13748 27614,13748 Z"/>
 <path fill="rgb(87,157,28)" stroke="none" d="M 27614,13250 L 27508,13250 27508,13039 27719,13039 27719,13250 27614,13250 Z"/>
 <path fill="rgb(126,0,33)" stroke="none" d="M 27614,12752 L 27508,12752 27508,12541 27719,12541 27719,12752 27614,12752 Z"/>
 <path fill="rgb(131,202,255)" stroke="none" d="M 27614,12254 L 27508,12254 27508,12043 27719,12043 27719,12254 27614,12254 Z"/>
 <path fill="rgb(49,64,4)" stroke="none" d="M 27614,11756 L 27508,11756 27508,11545 27719,11545 27719,11756 27614,11756 Z"/>
 <path fill="rgb(174,207,0)" stroke="none" d="M 27614,11258 L 27508,11258 27508,11047 27719,11047 27719,11258 27614,11258 Z"/>
 <path fill="rgb(75,31,111)" stroke="none" d="M 27614,10760 L 27508,10760 27508,10549 27719,10549 27719,10760 27614,10760 Z"/>
 <path fill="rgb(255,149,14)" stroke="none" d="M 27614,10262 L 27508,10262 27508,10051 27719,10051 27719,10262 27614,10262 Z"/>
 <path fill="rgb(197,0,11)" stroke="none" d="M 27614,9764 L 27508,9764 27508,9553 27719,9553 27719,9764 27614,9764 Z"/>
 <path fill="rgb(0,132,209)" stroke="none" d="M 27614,9266 L 27508,9266 27508,9055 27719,9055 27719,9266 27614,9266 Z"/>
 <path fill="rgb(0,69,134)" stroke="none" d="M 27614,8768 L 27508,8768 27508,8557 27719,8557 27719,8768 27614,8768 Z"/>
 <path fill="rgb(255,66,14)" stroke="none" d="M 27614,8271 L 27508,8271 27508,8060 27719,8060 27719,8271 27614,8271 Z"/>
 <path fill="rgb(255,211,32)" stroke="none" d="M 27614,7773 L 27508,7773 27508,7562 27719,7562 27719,7773 27614,7773 Z"/>
 <path fill="rgb(87,157,28)" stroke="none" d="M 27614,7275 L 27508,7275 27508,7064 27719,7064 27719,7275 27614,7275 Z"/>
 <path fill="rgb(126,0,33)" stroke="none" d="M 27614,6777 L 27508,6777 27508,6566 27719,6566 27719,6777 27614,6777 Z"/>
 <path fill="rgb(131,202,255)" stroke="none" d="M 27614,6279 L 27508,6279 27508,6068 27719,6068 27719,6279 27614,6279 Z"/>
 <path fill="rgb(49,64,4)" stroke="none" d="M 27614,5781 L 27508,5781 27508,5570 27719,5570 27719,5781 27614,5781 Z"/>
 <path fill="rgb(174,207,0)" stroke="none" d="M 27614,5283 L 27508,5283 27508,5072 27719,5072 27719,5283 27614,5283 Z"/>
 <path fill="rgb(75,31,111)" stroke="none" d="M 27614,4785 L 27508,4785 27508,4574 27719,4574 27719,4785 27614,4785 Z"/>
 <path fill="rgb(255,149,14)" stroke="none" d="M 27614,4287 L 27508,4287 27508,4076 27719,4076 27719,4287 27614,4287 Z"/>
 <path fill="rgb(197,0,11)" stroke="none" d="M 27614,3789 L 27508,3789 27508,3578 27719,3578 27719,3789 27614,3789 Z"/>
 <path fill="rgb(0,132,209)" stroke="none" d="M 27614,3291 L 27508,3291 27508,3080 27719,3080 27719,3291 27614,3291 Z"/>
 <path fill="rgb(0,69,134)" stroke="none" d="M 27614,2793 L 27508,2793 27508,2582 27719,2582 27719,2793 27614,2793 Z"/>
 <path fill="rgb(255,66,14)" stroke="none" d="M 27614,2295 L 27508,2295 27508,2084 27719,2084 27719,2295 27614,2295 Z"/>
 <text class="TextShape"><tspan class="TextParagraph" font-family="Liberation Sans, sans-serif" font-size="353px" font-weight="400"><tspan class="TextPosition" x="27819" y="2309"><tspan fill="rgb(0,0,0)" stroke="none">krb5</tspan></tspan></tspan></text>
 <text class="TextShape"><tspan class="TextParagraph" font-family="Liberation Sans, sans-serif" font-size="353px" font-weight="400"><tspan class="TextPosition" x="27819" y="2807"><tspan fill="rgb(0,0,0)" stroke="none">dns</tspan></tspan></tspan></text>
 <text class="TextShape"><tspan class="TextParagraph" font-family="Liberation Sans, sans-serif" font-size="353px" font-weight="400"><tspan class="TextPosition" x="27819" y="3305"><tspan fill="rgb(0,0,0)" stroke="none">vars</tspan></tspan></tspan></text>
 <text class="TextShape"><tspan class="TextParagraph" font-family="Liberation Sans, sans-serif" font-size="353px" font-weight="400"><tspan class="TextPosition" x="27819" y="3803"><tspan fill="rgb(0,0,0)" stroke="none">flow</tspan></tspan></tspan></text>
 <text class="TextShape"><tspan class="TextParagraph" font-family="Liberation Sans, sans-serif" font-size="353px" font-weight="400"><tspan class="TextPosition" x="27819" y="4301"><tspan fill="rgb(0,0,0)" stroke="none">dnp3</tspan></tspan></tspan></text>
 <text class="TextShape"><tspan class="TextParagraph" font-family="Liberation Sans, sans-serif" font-size="353px" font-weight="400"><tspan class="TextPosition" x="27819" y="4799"><tspan fill="rgb(0,0,0)" stroke="none">ftp-data</tspan></tspan></tspan></text>
 <text class="TextShape"><tspan class="TextParagraph" font-family="Liberation Sans, sans-serif" font-size="353px" font-weight="400"><tspan class="TextPosition" x="27819" y="5297"><tspan fill="rgb(0,0,0)" stroke="none">nfs</tspan></tspan></tspan></text>
 <text class="TextShape"><tspan class="TextParagraph" font-family="Liberation Sans, sans-serif" font-size="353px" font-weight="400"><tspan class="TextPosition" x="27819" y="5795"><tspan fill="rgb(0,0,0)" stroke="none">fileinfo</tspan></tspan></tspan></text>
 <text class="TextShape"><tspan class="TextParagraph" font-family="Liberation Sans, sans-serif" font-size="353px" font-weight="400"><tspan class="TextPosition" x="27819" y="6293"><tspan fill="rgb(0,0,0)" stroke="none">metadata</tspan></tspan></tspan></text>
 <text class="TextShape"><tspan class="TextParagraph" font-family="Liberation Sans, sans-serif" font-size="353px" font-weight="400"><tspan class="TextPosition" x="27819" y="6791"><tspan fill="rgb(0,0,0)" stroke="none">tls</tspan></tspan></tspan></text>
 <text class="TextShape"><tspan class="TextParagraph" font-family="Liberation Sans, sans-serif" font-size="353px" font-weight="400"><tspan class="TextPosition" x="27819" y="7289"><tspan fill="rgb(0,0,0)" stroke="none">smtp</tspan></tspan></tspan></text>
 <text class="TextShape"><tspan class="TextParagraph" font-family="Liberation Sans, sans-serif" font-size="353px" font-weight="400"><tspan class="TextPosition" x="27819" y="7787"><tspan fill="rgb(0,0,0)" stroke="none">email</tspan></tspan></tspan></text>
 <text class="TextShape"><tspan class="TextParagraph" font-family="Liberation Sans, sans-serif" font-size="353px" font-weight="400"><tspan class="TextPosition" x="27819" y="8285"><tspan fill="rgb(0,0,0)" stroke="none">rpc</tspan></tspan></tspan></text>
 <text class="TextShape"><tspan class="TextParagraph" font-family="Liberation Sans, sans-serif" font-size="353px" font-weight="400"><tspan class="TextPosition" x="27819" y="8782"><tspan fill="rgb(0,0,0)" stroke="none">http</tspan></tspan></tspan></text>
 <text class="TextShape"><tspan class="TextParagraph" font-family="Liberation Sans, sans-serif" font-size="353px" font-weight="400"><tspan class="TextPosition" x="27819" y="9280"><tspan fill="rgb(0,0,0)" stroke="none">stats-delta</tspan></tspan></tspan></text>
 <text class="TextShape"><tspan class="TextParagraph" font-family="Liberation Sans, sans-serif" font-size="353px" font-weight="400"><tspan class="TextPosition" x="27819" y="9778"><tspan fill="rgb(0,0,0)" stroke="none">stats</tspan></tspan></tspan></text>
 <text class="TextShape"><tspan class="TextParagraph" font-family="Liberation Sans, sans-serif" font-size="353px" font-weight="400"><tspan class="TextPosition" x="27819" y="10276"><tspan fill="rgb(0,0,0)" stroke="none">alert</tspan></tspan></tspan></text>
 <text class="TextShape"><tspan class="TextParagraph" font-family="Liberation Sans, sans-serif" font-size="353px" font-weight="400"><tspan class="TextPosition" x="27819" y="10774"><tspan fill="rgb(0,0,0)" stroke="none">packet_info</tspan></tspan></tspan></text>
 <text class="TextShape"><tspan class="TextParagraph" font-family="Liberation Sans, sans-serif" font-size="353px" font-weight="400"><tspan class="TextPosition" x="27819" y="11272"><tspan fill="rgb(0,0,0)" stroke="none">dhcp</tspan></tspan></tspan></text>
 <text class="TextShape"><tspan class="TextParagraph" font-family="Liberation Sans, sans-serif" font-size="353px" font-weight="400"><tspan class="TextPosition" x="27819" y="11770"><tspan fill="rgb(0,0,0)" stroke="none">tcp</tspan></tspan></tspan></text>
 <text class="TextShape"><tspan class="TextParagraph" font-family="Liberation Sans, sans-serif" font-size="353px" font-weight="400"><tspan class="TextPosition" x="27819" y="12268"><tspan fill="rgb(0,0,0)" stroke="none">toplevel</tspan></tspan></tspan></text>
 <text class="TextShape"><tspan class="TextParagraph" font-family="Liberation Sans, sans-serif" font-size="353px" font-weight="400"><tspan class="TextPosition" x="27819" y="12766"><tspan fill="rgb(0,0,0)" stroke="none">ssh</tspan></tspan></tspan></text>
 <text class="TextShape"><tspan class="TextParagraph" font-family="Liberation Sans, sans-serif" font-size="353px" font-weight="400"><tspan class="TextPosition" x="27819" y="13264"><tspan fill="rgb(0,0,0)" stroke="none">tunnel</tspan></tspan></tspan></text>
 <text class="TextShape"><tspan class="TextParagraph" font-family="Liberation Sans, sans-serif" font-size="353px" font-weight="400"><tspan class="TextPosition" x="27819" y="13762"><tspan fill="rgb(0,0,0)" stroke="none">tftp</tspan></tspan></tspan></text>
 <text class="TextShape"><tspan class="TextParagraph" font-family="Liberation Sans, sans-serif" font-size="353px" font-weight="400"><tspan class="TextPosition" x="27819" y="14260"><tspan fill="rgb(0,0,0)" stroke="none">netflow</tspan></tspan></tspan></text>
 <text class="TextShape"><tspan class="TextParagraph" font-family="Liberation Sans, sans-serif" font-size="353px" font-weight="400"><tspan class="TextPosition" x="27819" y="14758"><tspan fill="rgb(0,0,0)" stroke="none">smb</tspan></tspan></tspan></text>
</svg>